<?xml version="1.0" standalone="no"?>
<!DOCTYPE svg PUBLIC "-//W3C//DTD SVG 20010904//EN"
 "http://www.w3.org/TR/2001/REC-SVG-20010904/DTD/svg10.dtd">
<svg version="1.0" xmlns="http://www.w3.org/2000/svg"
 width="1024.000000pt" height="1024.000000pt" viewBox="0 0 1024.000000 1024.000000"
 preserveAspectRatio="xMidYMid meet">

<g transform="translate(0.000000,1024.000000) scale(0.100000,-0.100000)"
fill="#000000" stroke="none">
<path d="M2930 8949 c-408 -46 -728 -209 -931 -474 -170 -222 -249 -473 -270
-860 -7 -133 -9 -852 -6 -2150 3 -1730 5 -1962 20 -2056 31 -206 75 -362 138
-493 46 -95 118 -208 129 -201 4 3 14 -3 21 -12 10 -12 10 -14 2 -9 -33 19 -6
-19 65 -90 174 -177 415 -299 695 -352 86 -16 241 -17 2302 -17 l2210 0 120
22 c589 107 947 460 1045 1029 12 65 25 196 30 289 11 220 2 4054 -10 4205
-11 131 -29 232 -40 225 -5 -3 -6 3 -4 13 5 17 -42 182 -52 182 -3 0 -3 -10 1
-22 3 -13 -17 24 -46 80 -29 57 -65 117 -80 133 -15 16 -25 29 -22 29 3 0 0 7
-7 15 -7 8 -16 12 -21 9 -5 -3 -28 15 -52 39 -50 54 -132 117 -150 117 -8 0
-24 -12 -38 -27 -18 -20 -20 -25 -6 -20 9 4 17 2 17 -3 0 -6 -9 -10 -19 -10
-26 0 -36 -17 -36 -65 0 -25 -5 -40 -12 -40 -14 0 -17 -9 -10 -28 4 -9 6 -9 6
0 1 14 31 6 31 -9 0 -5 -5 -6 -10 -3 -16 10 -40 -14 -40 -41 0 -12 -5 -26 -10
-29 -6 -3 -8 -17 -6 -31 4 -22 2 -24 -17 -18 -22 7 -22 6 -3 -15 19 -21 19
-21 -8 -21 -23 0 -26 -3 -21 -20 4 -11 3 -19 -2 -18 -4 2 -8 -1 -8 -7 0 -5 3
-9 7 -8 4 2 5 -4 1 -13 -4 -12 -8 -13 -14 -3 -11 18 -42 -9 -34 -30 5 -13 4
-14 -6 -3 -20 19 -31 14 -19 -7 13 -26 14 -52 0 -31 -9 14 -14 7 -11 -13 1 -5
-3 -6 -8 -3 -5 3 -14 -1 -21 -9 -7 -8 -17 -12 -23 -8 -6 3 -7 1 -3 -5 4 -6 14
-9 24 -6 9 3 6 -2 -8 -10 -14 -8 -19 -15 -12 -16 6 0 12 -5 12 -11 0 -5 -5 -7
-10 -4 -12 7 -42 -20 -33 -29 4 -3 1 -6 -5 -6 -6 0 -16 -10 -23 -21 -9 -17 -8
-20 3 -13 11 7 11 5 0 -9 -8 -9 -19 -15 -25 -14 -6 1 -13 -8 -15 -21 -3 -17
-8 -22 -19 -18 -13 5 -14 4 -3 -9 11 -14 7 -19 -12 -16 -5 0 -7 -5 -5 -12 1
-6 -3 -11 -9 -10 -5 1 -16 -8 -24 -20 -12 -20 -12 -21 4 -8 14 12 16 12 10 -3
-3 -9 -10 -16 -16 -16 -5 0 -6 -5 -3 -10 4 -6 1 -9 -6 -8 -7 2 -13 -2 -14 -9
0 -6 -4 -15 -9 -20 -5 -5 -6 -3 -2 5 4 6 3 12 -1 12 -13 0 -34 -40 -28 -50 4
-6 -1 -10 -9 -10 -19 0 -21 -16 -3 -23 6 -3 -3 -4 -20 -3 -38 4 -39 3 -17 -18
13 -14 13 -16 1 -16 -18 0 -29 -24 -20 -47 5 -12 2 -15 -10 -10 -9 3 -19 2
-22 -3 -4 -6 0 -10 8 -10 8 0 17 -7 21 -15 6 -17 -9 -21 -19 -5 -8 12 -26 13
-22 1 1 -4 -9 -18 -23 -29 -21 -18 -22 -21 -7 -22 26 0 21 -20 -5 -20 -23 -1
-23 -1 2 -16 14 -8 17 -13 7 -10 -14 5 -17 2 -13 -12 7 -23 -4 -37 -32 -38
-12 -1 -20 1 -17 5 6 6 11 7 37 10 15 1 2 14 -17 17 -8 1 -15 -2 -15 -7 0 -6
-6 -7 -12 -3 -7 4 -10 4 -6 -1 4 -4 3 -16 -2 -26 -7 -12 -7 -20 0 -24 8 -5 8
-11 0 -20 -7 -9 -8 -15 -1 -20 12 -7 10 -33 -3 -54 -7 -11 -5 -13 9 -7 15 5
16 4 6 -8 -19 -22 7 -58 37 -51 24 6 28 -5 12 -35 -8 -16 -8 -18 5 -14 10 4
15 0 16 -12 3 -43 7 -62 13 -73 4 -6 1 -11 -6 -11 -8 0 -9 -3 -3 -8 17 -12 17
-35 1 -29 -10 4 -13 1 -9 -9 3 -9 12 -13 22 -10 11 4 10 2 -3 -9 -17 -13 -16
-18 4 -17 3 0 5 -13 5 -29 0 -27 -1 -28 -13 -12 -12 16 -13 14 -7 -12 4 -16 8
-36 11 -42 2 -7 -5 -13 -16 -13 -16 0 -17 -4 -9 -32 5 -18 8 -51 8 -73 l-1
-40 -8 47 c-12 67 -48 135 -94 174 -59 51 -66 41 -8 -11 94 -85 87 19 87
-1280 0 -1082 -1 -1143 -19 -1208 -50 -181 -216 -320 -421 -351 -31 -5 -25 -1
25 16 49 16 59 23 41 26 -18 3 -22 8 -18 28 3 19 1 23 -12 20 -58 -18 -66 -13
-13 8 161 65 273 192 302 346 12 65 12 2193 0 2230 -8 22 -9 20 -9 -15 1 -75
-3 -80 -16 -15 -12 63 -12 60 -14 -103 -1 -159 -8 -207 -31 -207 -6 0 -10 53
-10 129 0 136 -7 194 -21 185 -5 -3 -9 4 -9 14 0 37 -51 62 -79 39 -9 -7 0 8
19 32 68 87 1 24 -120 -114 -68 -77 -155 -175 -194 -217 l-70 -78 -234 0 -234
0 73 81 c125 138 318 364 319 372 0 4 -131 7 -291 7 -271 0 -290 1 -278 17 9
10 10 15 2 12 -6 -2 -56 -54 -110 -116 -54 -61 -150 -170 -213 -241 l-115
-130 -249 -1 -248 -1 89 98 c150 163 333 375 333 385 0 6 -9 2 -19 -7 -17 -16
-40 -17 -278 -9 l-258 8 180 5 180 6 -190 4 c-173 3 -159 4 170 11 198 5 540
6 760 3 220 -2 454 0 520 4 114 9 107 9 -140 12 -143 2 -273 4 -290 5 -16 1
-244 4 -505 6 -345 2 -426 5 -295 9 l180 6 -155 3 c-336 8 -17 19 630 21 360
1 680 5 710 9 44 6 31 8 -69 9 -68 0 -126 3 -129 6 -3 4 10 6 29 6 25 0 30 3
19 10 -11 7 -5 13 28 28 23 10 39 22 34 27 -4 4 1 5 11 2 9 -4 17 -2 17 4 0 6
7 9 14 6 10 -4 13 -1 9 9 -3 9 2 14 16 14 12 0 21 3 21 8 0 4 13 16 29 27 16
10 28 22 25 26 -5 9 25 21 37 13 5 -3 9 -1 9 5 0 5 -6 12 -12 14 -10 4 -9 6 1
6 10 1 11 4 2 15 -7 9 -8 17 -2 20 5 3 7 16 4 29 -3 12 -2 19 2 14 5 -4 17 0
27 10 10 9 18 11 18 6 0 -6 14 -13 30 -15 20 -3 30 0 30 9 0 7 5 13 11 13 6 0
9 -6 6 -14 -4 -10 0 -12 16 -8 12 3 16 7 9 10 -18 6 -4 22 21 23 20 1 20 2 -3
9 -25 8 -25 8 5 10 17 1 24 4 18 7 -23 9 -14 23 14 23 26 0 26 1 7 16 -18 14
-18 15 6 8 22 -6 23 -5 12 9 -8 9 -20 13 -28 10 -8 -3 -14 -1 -14 5 0 20 27
19 40 -1 8 -12 13 -25 12 -29 -1 -3 5 -9 13 -12 20 -7 19 6 -4 35 -10 13 -16
29 -14 35 2 6 -6 14 -18 17 -20 5 -21 8 -8 23 10 13 10 16 1 10 -8 -5 -20 1
-33 15 -10 12 -19 17 -19 11 0 -6 5 -14 10 -17 6 -4 8 -11 5 -16 -8 -13 -45
-11 -45 2 0 5 6 7 13 3 6 -4 8 -3 4 1 -4 5 -27 9 -50 8 -23 -1 -32 1 -19 4 13
2 25 10 28 18 3 7 15 11 27 8 17 -4 19 -2 8 5 -12 8 -8 14 20 26 19 9 25 14
14 10 -50 -14 -247 -55 -251 -52 -2 3 40 15 94 27 114 26 176 52 215 89 35 33
60 79 53 97 -2 7 2 16 11 19 9 4 14 9 11 11 -3 3 -89 -15 -192 -41 -122 -30
-191 -42 -199 -36 -7 5 -84 65 -172 134 -242 188 -349 268 -353 263 -2 -2 7
-14 20 -27 13 -13 17 -18 8 -11 -8 6 -26 10 -40 8 -14 -2 -47 -6 -75 -9 -94
-12 -260 -46 -387 -79 -115 -30 -129 -32 -154 -19 -20 11 -24 16 -13 21 8 4
115 32 237 62 157 38 217 56 200 60 -36 11 -56 9 -33 -2 16 -7 13 -8 -13 -4
-33 5 -79 -5 -532 -115 -489 -119 -1283 -309 -1925 -460 -306 -72 -361 -96
-419 -185 -37 -56 -44 -89 -54 -260 l-9 -150 -3 115 c-1 77 -5 105 -10 85 -4
-16 -8 -23 -9 -16 -1 12 -4 12 -13 3 -20 -20 -38 -13 -40 16 -2 15 -5 -162 -8
-393 l-6 -420 1 490 0 490 29 53 c37 66 83 107 161 143 37 17 286 82 665 174
709 171 2160 533 2144 534 -6 1 -208 -46 -448 -105 -241 -58 -440 -103 -442
-101 -3 2 35 15 83 28 49 13 80 25 71 27 -10 2 -18 8 -18 13 0 5 -13 9 -30 9
-16 0 -30 5 -30 11 0 5 -4 7 -10 4 -6 -3 -7 1 -4 9 3 9 10 13 15 10 5 -3 9 2
9 10 0 9 5 16 10 16 6 0 10 5 10 11 0 5 -4 7 -10 4 -5 -3 -10 -2 -10 3 0 6 7
13 16 16 19 7 9 26 -16 26 -10 0 -21 7 -24 16 -9 24 -7 31 5 12 5 -10 17 -18
24 -18 17 0 20 16 5 25 -5 3 -15 16 -20 28 -11 21 -10 21 4 3 14 -18 16 -18
22 -2 5 14 9 15 16 4 7 -10 8 -10 6 2 -1 8 3 25 10 38 7 12 10 28 6 34 -4 6
-3 9 2 6 5 -3 18 -2 29 3 19 7 19 8 1 8 -15 1 -16 4 -6 16 6 8 15 14 18 13 22
-2 24 4 4 18 -12 8 -22 21 -21 27 0 9 2 9 5 0 3 -7 12 -9 21 -6 11 4 14 2 9
-5 -5 -8 -1 -10 10 -5 11 4 13 8 6 11 -7 2 -12 11 -12 19 0 11 3 13 13 5 10
-8 13 -6 13 8 0 10 -4 16 -8 14 -11 -7 -10 8 3 26 8 11 12 12 15 3 4 -9 12 -7
26 7 12 11 25 17 29 15 4 -3 11 4 14 16 4 13 2 24 -5 29 -9 5 -8 9 3 13 8 3
20 0 26 -6 10 -9 12 -9 9 2 -2 7 3 16 11 19 8 3 11 0 7 -7 -5 -7 -1 -9 9 -5
13 5 13 9 3 22 -10 12 -10 14 -1 8 8 -4 17 2 25 19 7 15 17 24 25 21 7 -3 13
-1 13 4 0 6 7 10 15 10 8 0 15 5 15 11 0 5 -4 7 -10 4 -5 -3 -10 -1 -10 5 0 6
10 8 25 4 19 -5 25 -2 25 11 0 9 5 13 11 10 6 -4 9 0 7 11 -2 15 4 19 25 20
16 1 33 7 37 14 4 7 13 9 19 6 8 -5 8 0 1 18 -8 22 -7 26 8 27 10 0 12 3 5 6
-7 2 -13 9 -13 14 0 6 5 7 11 4 6 -4 22 4 36 16 l26 24 -6 -22 c-3 -13 -1 -23
4 -23 5 0 9 7 9 15 0 8 8 15 17 15 15 0 14 2 -3 15 -26 18 -71 22 -309 31
-104 3 -193 11 -196 15 -6 10 -74 16 -234 21 -55 1 125 5 400 8 282 3 -119 6
-920 6 -781 1 -1454 -2 -1495 -7z m236 -316 c-11 -11 -19 6 -11 24 8 17 8 17
12 0 3 -10 2 -21 -1 -24z m1884 -123 c0 -13 -5 -18 -15 -14 -8 4 -15 12 -15
20 0 8 7 14 15 14 8 0 15 -9 15 -20z m2920 5 c0 -8 -4 -15 -10 -15 -5 0 -10 7
-10 15 0 8 5 15 10 15 6 0 10 -7 10 -15z m30 5 c0 -5 -2 -10 -4 -10 -3 0 -8 5
-11 10 -3 6 -1 10 4 10 6 0 11 -4 11 -10z m-5733 -132 c-3 -8 -6 -5 -6 6 -1
11 2 17 5 13 3 -3 4 -12 1 -19z m2857 -54 c3 -8 2 -12 -4 -9 -6 3 -10 10 -10
16 0 14 7 11 14 -7z m-2624 -24 c0 -5 -5 -10 -11 -10 -5 0 -7 5 -4 10 3 6 8
10 11 10 2 0 4 -4 4 -10z m2605 -9 c-3 -6 -11 -11 -16 -11 -5 0 -4 6 3 14 14
16 24 13 13 -3z m3035 -51 c0 -5 -4 -10 -10 -10 -5 0 -10 5 -10 10 0 6 5 10
10 10 6 0 10 -4 10 -10z m-3909 -23 c-1 -12 -15 -9 -19 4 -3 6 1 10 8 8 6 -3
11 -8 11 -12z m3639 -47 c0 -5 -4 -10 -10 -10 -5 0 -10 5 -10 10 0 6 5 10 10
10 6 0 10 -4 10 -10z m-4970 -55 c0 -8 -7 -11 -20 -8 -16 4 -18 8 -9 19 13 16
29 10 29 -11z m5186 -6 c10 -17 -13 -36 -27 -22 -12 12 -4 33 11 33 5 0 12 -5
16 -11z m-2206 -29 c-14 -4 -34 -8 -45 -8 -16 0 -15 2 5 8 14 4 34 8 45 8 16
0 15 -2 -5 -8z m-73 -16 c-3 -3 -12 -4 -19 -1 -8 3 -5 6 6 6 11 1 17 -2 13 -5z
m-687 -15 c0 -5 -9 -9 -20 -9 -11 0 -20 4 -20 8 0 4 9 8 20 9 11 1 20 -2 20
-8z m565 -15 c-49 -13 -97 -23 -105 -23 -21 1 150 47 175 47 11 0 -20 -11 -70
-24z m-145 -34 c-34 -11 -60 -11 -35 0 11 5 29 8 40 8 16 0 15 -2 -5 -8z
m-1580 -9 c0 -5 -6 -14 -14 -20 -16 -13 -32 2 -21 19 8 12 35 13 35 1z m1017
-7 c-3 -3 -12 -4 -19 -1 -8 3 -5 6 6 6 11 1 17 -2 13 -5z m483 -4 c-34 -11
-60 -11 -35 0 11 5 29 8 40 8 16 0 15 -2 -5 -8z m-563 -16 c-3 -3 -12 -4 -19
-1 -8 3 -5 6 6 6 11 1 17 -2 13 -5z m500 0 c-3 -3 -12 -4 -19 -1 -8 3 -5 6 6
6 11 1 17 -2 13 -5z m187 -56 c45 -34 124 -96 176 -138 53 -41 142 -111 198
-155 l102 -80 -239 -59 -239 -58 -219 168 c-120 92 -242 188 -272 212 -35 28
-59 41 -70 37 -16 -6 -75 -19 -156 -35 -22 -4 -80 -17 -130 -29 -277 -65 -324
-74 -304 -58 2 2 128 34 279 71 151 36 383 93 515 125 132 32 249 59 259 60
11 1 56 -27 100 -61z m-739 42 c-11 -5 -29 -8 -40 -8 -16 0 -15 2 5 8 34 11
60 11 35 0z m512 4 c-3 -3 -12 -4 -19 -1 -8 3 -5 6 6 6 11 1 17 -2 13 -5z
m-40 -10 c-3 -3 -12 -4 -19 -1 -8 3 -5 6 6 6 11 1 17 -2 13 -5z m-2677 -14 c0
-5 -4 -10 -10 -10 -5 0 -10 5 -10 10 0 6 5 10 10 10 6 0 10 -4 10 -10z m2137
4 c-3 -3 -12 -4 -19 -1 -8 3 -5 6 6 6 11 1 17 -2 13 -5z m500 0 c-3 -3 -12 -4
-19 -1 -8 3 -5 6 6 6 11 1 17 -2 13 -5z m-44 -11 c-7 -2 -19 -2 -25 0 -7 3 -2
5 12 5 14 0 19 -2 13 -5z m-2765 -147 c35 -14 36 -15 10 -15 -16 -1 -28 -4
-28 -8 0 -5 -4 -14 -9 -22 -7 -12 -15 -8 -41 17 -22 22 -27 32 -16 32 9 0 21
9 28 20 10 16 14 17 16 6 2 -8 20 -21 40 -30z m2585 37 c3 -5 -6 -8 -19 -8
-13 0 -24 3 -24 8 0 4 9 7 19 7 11 0 22 -3 24 -7z m3237 -23 c0 -5 -7 -10 -16
-10 -8 0 -12 5 -9 10 3 6 10 10 16 10 5 0 9 -4 9 -10z m-6030 -10 c0 -5 -4
-10 -10 -10 -5 0 -10 5 -10 10 0 6 5 10 10 10 6 0 10 -4 10 -10z m610 0 c0 -5
-2 -10 -4 -10 -3 0 -8 5 -11 10 -3 6 -1 10 4 10 6 0 11 -4 11 -10z m-513 -6
c-3 -3 -12 -4 -19 -1 -8 3 -5 6 6 6 11 1 17 -2 13 -5z m283 -14 c0 -5 -4 -10
-10 -10 -5 0 -10 5 -10 10 0 6 5 10 10 10 6 0 10 -4 10 -10z m5090 0 c8 -5 12
-12 8 -15 -9 -9 -48 4 -48 16 0 12 21 11 40 -1z m-710 -20 c-14 -4 -34 -8 -45
-8 l-20 -1 20 9 c11 5 31 8 45 8 l25 0 -25 -8z m-73 -16 c-3 -3 -12 -4 -19 -1
-8 3 -5 6 6 6 11 1 17 -2 13 -5z m-2525 -22 c2 -4 107 -90 233 -191 127 -100
248 -198 270 -216 l40 -32 -210 -51 c-116 -28 -227 -54 -247 -57 -36 -7 -42
-3 -230 147 -106 85 -233 184 -281 221 -77 58 -85 67 -65 72 13 3 120 30 238
59 227 57 246 61 252 48z m3638 -52 c0 -5 -2 -10 -4 -10 -3 0 -8 5 -11 10 -3
6 -1 10 4 10 6 0 11 -4 11 -10z m-4225 -96 c-38 -13 -85 -31 -103 -40 -34 -16
-410 -114 -438 -114 -8 0 -41 -13 -73 -29 -40 -20 -63 -26 -74 -20 -11 7 -20
3 -31 -13 -9 -12 -16 -17 -16 -10 0 21 47 62 93 82 23 10 170 48 327 84 157
37 299 70 315 75 66 20 66 9 0 -15z m865 16 c0 -5 -4 -10 -10 -10 -5 0 -10 5
-10 10 0 6 5 10 10 10 6 0 10 -4 10 -10z m1977 -46 c-3 -3 -12 -4 -19 -1 -8 3
-5 6 6 6 11 1 17 -2 13 -5z m150 -27 c22 9 8 -14 -17 -27 -13 -7 -21 -5 -31 7
-12 15 -12 16 4 10 9 -3 17 -2 17 3 0 6 -6 10 -12 10 -9 0 -8 4 2 10 11 7 16
5 18 -5 2 -8 10 -11 19 -8z m-4422 -7 c3 -5 1 -10 -4 -10 -6 0 -11 5 -11 10 0
6 2 10 4 10 3 0 8 -4 11 -10z m4874 -151 c-16 -10 -23 -4 -14 10 3 6 11 8 17
5 6 -4 5 -9 -3 -15z m-849 -19 c0 -5 -4 -10 -10 -10 -5 0 -10 5 -10 10 0 6 5
10 10 10 6 0 10 -4 10 -10z m-4130 -48 c0 -13 -12 -22 -22 -16 -10 6 -1 24 13
24 5 0 9 -4 9 -8z m1382 -44 c65 -39 109 -94 238 -300 141 -226 172 -292 168
-350 -4 -46 -7 -42 -32 37 -26 88 -179 341 -303 504 -74 98 -148 126 -334 126
-122 0 -126 -1 -162 -28 -50 -38 -69 -69 -83 -136 -12 -55 -12 -55 -13 -15 -1
64 44 143 99 172 43 22 53 23 210 20 159 -3 167 -4 212 -30z m3718 22 c0 -5
-5 -10 -11 -10 -5 0 -7 5 -4 10 3 6 8 10 11 10 2 0 4 -4 4 -10z m-110 -15 c9
-10 9 -15 1 -15 -6 0 -11 5 -11 11 0 5 -4 7 -10 4 -5 -3 -10 -1 -10 4 0 16 16
13 30 -4z m-900 -42 c0 -14 -19 -38 -25 -32 -8 8 5 39 16 39 5 0 9 -3 9 -7z
m1835 -43 c3 -5 -1 -10 -9 -10 -9 0 -16 5 -16 10 0 6 4 10 9 10 6 0 13 -4 16
-10z m-4835 -20 c42 -42 14 -110 -46 -110 -60 0 -83 62 -39 105 29 30 58 32
85 5z m-686 -25 c3 -9 0 -15 -9 -15 -8 0 -15 7 -15 15 0 8 4 15 9 15 5 0 11
-7 15 -15z m2146 -184 c0 -5 -100 -120 -222 -255 l-222 -246 -140 2 -141 2
130 6 c91 3 123 8 106 14 -13 4 -40 22 -59 40 -19 17 -39 30 -44 28 -5 -1 -7
2 -4 7 3 5 -13 24 -36 42 -54 42 -59 49 -54 73 3 11 1 15 -4 10 -5 -5 -11 -36
-13 -69 l-3 -60 -2 67 -2 68 117 132 c65 73 122 136 128 140 15 11 465 10 465
-1z m2668 -61 c26 -25 28 -32 5 -23 -11 4 -14 3 -9 -5 9 -15 5 -15 -29 -2 -22
9 -24 12 -13 30 16 25 19 25 46 0z m-4130 -216 c25 -17 30 -61 10 -86 -18 -21
-57 -29 -82 -16 -27 14 -36 28 -36 57 0 53 60 79 108 45z m512 -16 c13 -25 13
-31 0 -55 -31 -56 -120 -37 -120 24 0 65 88 87 120 31z m237 -140 c-3 -8 -6
-5 -6 6 -1 11 2 17 5 13 3 -3 4 -12 1 -19z m3593 13 c0 -6 -4 -13 -10 -16 -5
-3 -10 1 -10 9 0 9 5 16 10 16 6 0 10 -4 10 -9z m-609 -1046 c-3 -705 -6 -880
-18 -925 -28 -111 -96 -186 -210 -231 -52 -21 -76 -23 -238 -25 l-180 -1 162
6 c89 3 165 9 169 14 4 4 0 7 -9 7 -20 0 -23 26 -4 33 6 3 -13 6 -43 7 l-55 3
62 8 c145 18 263 110 302 232 11 34 20 52 20 41 1 -12 -6 -41 -14 -65 -10 -26
-12 -45 -6 -47 5 -2 7 -10 4 -18 -12 -31 9 -12 25 24 15 33 17 100 20 667 2
346 1 627 -2 625 -2 -3 -7 -264 -11 -580 -4 -316 -9 -577 -11 -579 -3 -3 -3
255 -2 572 2 317 2 577 1 577 -1 0 -93 -43 -204 -95 -112 -52 -204 -93 -206
-91 -2 2 11 10 29 19 217 104 361 176 351 177 -7 0 -13 13 -13 29 0 16 -7 34
-15 41 -8 7 -15 17 -15 22 0 7 4 7 13 0 9 -8 12 0 12 36 0 46 -1 47 -29 44
-27 -3 -28 -1 -22 25 4 15 14 33 22 39 7 6 14 15 14 19 0 4 -7 2 -15 -5 -12
-10 -15 -10 -15 4 0 9 8 16 17 16 12 0 8 7 -14 23 -30 20 -38 36 -34 61 1 4
-4 16 -11 25 -8 10 -5 9 10 -3 12 -11 20 -26 17 -34 -8 -22 5 -34 23 -20 13
11 15 10 9 -5 -4 -11 -3 -16 3 -12 6 3 10 13 10 21 0 11 -6 13 -21 9 -15 -5
-19 -4 -14 4 4 7 2 17 -3 24 -15 19 -21 67 -8 67 6 0 4 5 -4 10 -13 8 -12 10
5 11 11 1 26 2 33 2 6 -1 12 3 12 8 0 5 -15 9 -32 10 -30 1 -28 2 12 10 25 6
60 8 78 6 17 -1 32 1 32 5 0 4 -132 9 -292 10 l-293 3 285 5 c157 3 292 5 300
5 13 0 15 -102 11 -870z m304 775 c3 -5 1 -10 -4 -10 -6 0 -11 5 -11 10 0 6 2
10 4 10 3 0 8 -4 11 -10z m-2241 -51 c14 -17 47 -68 72 -114 26 -46 56 -95 68
-109 25 -30 92 -49 244 -66 145 -17 180 -50 133 -126 -10 -17 -66 -80 -123
-140 l-105 -110 13 -99 c7 -55 13 -128 14 -162 0 -55 -3 -64 -26 -82 -15 -12
-35 -21 -45 -21 -17 0 -130 56 -246 121 l-41 23 -147 -72 c-81 -40 -159 -72
-176 -72 -32 0 -69 31 -69 58 0 9 9 75 20 146 11 71 20 136 20 144 0 8 -42 58
-93 111 -124 127 -137 146 -137 192 0 52 20 63 160 88 208 38 207 37 290 196
29 55 60 106 68 113 30 23 78 15 106 -19z m1806 -89 c0 -13 -11 -13 -30 0 -12
8 -11 10 8 10 12 0 22 -4 22 -10z m-10 -52 c0 -6 -6 -5 -15 2 -8 7 -15 14 -15
16 0 2 7 1 15 -2 8 -4 15 -11 15 -16z m-24 -18 c8 0 14 -5 14 -11 0 -6 -7 -8
-16 -5 -9 3 -18 6 -20 6 -2 0 -3 10 -3 23 1 16 2 18 6 5 2 -10 11 -18 19 -18z
m1235 15 c-1 -15 -24 -12 -29 3 -3 9 2 13 12 10 10 -1 17 -7 17 -13z m-2866
-36 c9 -16 19 -28 23 -27 4 1 18 -3 32 -9 54 -23 104 -35 173 -43 107 -12 148
-25 174 -57 12 -15 20 -20 17 -10 -8 23 8 22 24 -3 8 -13 8 -20 2 -20 -6 0
-19 -19 -29 -42 -10 -24 -29 -52 -42 -63 l-24 -20 18 21 c9 11 26 38 36 59
l18 38 -25 29 c-29 32 -65 44 -167 53 -124 12 -197 31 -217 57 -26 32 -52 82
-39 73 6 -3 18 -19 26 -36z m1564 7 c7 -8 8 -17 3 -20 -6 -3 -12 3 -15 14 -6
24 -4 25 12 6z m-2359 -26 c0 -5 -5 -10 -11 -10 -5 0 -7 5 -4 10 3 6 8 10 11
10 2 0 4 -4 4 -10z m2500 -21 c0 -19 -2 -20 -16 -8 -15 12 -16 11 -10 -9 5
-13 3 -22 -3 -22 -17 0 -13 -18 9 -40 12 -12 15 -20 8 -20 -7 0 -22 14 -33 30
-11 16 -23 30 -27 30 -5 0 -8 5 -8 11 0 8 4 8 15 -1 16 -13 39 -4 29 11 -6 11
13 39 27 39 5 0 9 -10 9 -21z m-4700 -29 c0 -5 -2 -10 -4 -10 -3 0 -8 5 -11
10 -3 6 -1 10 4 10 6 0 11 -4 11 -10z m5400 -14 c0 -3 -4 -8 -10 -11 -5 -3
-10 -1 -10 4 0 6 5 11 10 11 6 0 10 -2 10 -4z m-930 -30 c0 -3 -4 -8 -10 -11
-5 -3 -10 -1 -10 4 0 6 5 11 10 11 6 0 10 -2 10 -4z m110 -6 c0 -5 -2 -10 -4
-10 -3 0 -8 5 -11 10 -3 6 -1 10 4 10 6 0 11 -4 11 -10z m30 -15 c11 -13 10
-14 -4 -9 -9 3 -16 10 -16 15 0 13 6 11 20 -6z m580 -5 c0 -5 -5 -10 -11 -10
-5 0 -7 5 -4 10 3 6 8 10 11 10 2 0 4 -4 4 -10z m-1703 -6 c-3 -3 -12 -4 -19
-1 -8 3 -5 6 6 6 11 1 17 -2 13 -5z m1181 -19 c-3 -3 -9 2 -12 12 -6 14 -5 15
5 6 7 -7 10 -15 7 -18z m870 -36 c-2 -6 -8 -10 -13 -10 -5 0 -11 4 -13 10 -2
6 4 11 13 11 9 0 15 -5 13 -11z m-2111 -31 c-3 -8 -6 -5 -6 6 -1 11 2 17 5 13
3 -3 4 -12 1 -19z m133 -48 c0 -5 -4 -10 -10 -10 -5 0 -10 5 -10 10 0 6 5 10
10 10 6 0 10 -4 10 -10z m-240 -54 c0 -2 -8 -10 -17 -17 -16 -13 -17 -12 -4 4
13 16 21 21 21 13z m990 -71 c-14 -8 -29 -14 -35 -14 -5 0 1 6 15 14 14 8 30
14 35 14 6 0 -1 -6 -15 -14z m-2640 1 c0 -3 -4 -8 -10 -11 -5 -3 -10 -1 -10 4
0 6 5 11 10 11 6 0 10 -2 10 -4z m2590 -21 c0 -6 -76 -45 -87 -45 -4 1 12 12
37 25 50 27 50 27 50 20z m-690 -50 c0 -8 -6 -15 -14 -15 -8 0 -18 -9 -21 -21
-5 -15 -10 -17 -19 -10 -7 6 -15 8 -19 5 -3 -3 -3 3 0 15 4 15 13 21 34 21 16
0 29 5 29 10 0 6 2 10 5 10 3 0 5 -7 5 -15z m580 -5 c-8 -5 -19 -10 -25 -10
-5 0 -3 5 5 10 8 5 20 10 25 10 6 0 3 -5 -5 -10z m-750 -70 c0 -5 -7 -10 -15
-10 -8 0 -15 5 -15 10 0 6 7 10 15 10 8 0 15 -4 15 -10z m528 -121 c-2 -6 -8
-10 -13 -10 -5 0 -11 4 -13 10 -2 6 4 11 13 11 9 0 15 -5 13 -11z m430 -7 c2
-7 -3 -12 -12 -12 -9 0 -16 7 -16 16 0 17 22 14 28 -4z m-2158 -22 c0 -5 -4
-10 -10 -10 -5 0 -10 5 -10 10 0 6 5 10 10 10 6 0 10 -4 10 -10z m-1630 -610
c4 120 6 131 17 100 6 -19 12 -30 12 -23 1 7 8 10 16 7 11 -5 16 -25 17 -78 1
-39 5 28 8 149 5 207 5 194 12 -220 4 -242 4 -525 -1 -630 l-8 -190 -3 135
c-1 74 -5 122 -9 106 -3 -17 -15 -32 -28 -37 -23 -8 -24 -5 -37 111 -2 19 -3
-81 -2 -222 1 -168 -2 -251 -9 -240 -13 23 -19 970 -9 1300 l9 267 5 -335 c4
-246 6 -299 10 -200z m3118 479 c-2 -6 -8 -10 -13 -10 -5 0 -11 4 -13 10 -2 6
4 11 13 11 9 0 15 -5 13 -11z m-3703 -9 c-3 -5 -10 -10 -16 -10 -5 0 -9 5 -9
10 0 6 7 10 16 10 8 0 12 -4 9 -10z m2015 -40 c0 -5 -4 -10 -9 -10 -6 0 -13 5
-16 10 -3 6 1 10 9 10 9 0 16 -4 16 -10z m-850 -40 c0 -5 -5 -10 -11 -10 -5 0
-7 5 -4 10 3 6 8 10 11 10 2 0 4 -4 4 -10z m2355 -10 c3 -5 1 -10 -4 -10 -6 0
-11 5 -11 10 0 6 2 10 4 10 3 0 8 -4 11 -10z m653 -142 c3 -17 -46 -18 -930
-16 l-933 3 930 5 c854 5 882 5 340 8 -615 3 -1157 11 -1164 18 -3 2 391 3
875 2 828 -3 879 -4 882 -20z m1212 -18 c0 -5 -4 -10 -10 -10 -5 0 -10 5 -10
10 0 6 5 10 10 10 6 0 10 -4 10 -10z m170 -310 c0 -18 -3 -19 -20 -10 -11 6
-20 15 -20 20 0 6 9 10 20 10 13 0 20 -7 20 -20z m-320 -164 c0 -3 -4 -8 -10
-11 -5 -3 -10 -1 -10 4 0 6 5 11 10 11 6 0 10 -2 10 -4z m-5270 -816 c0 -5 -4
-10 -10 -10 -5 0 -10 5 -10 10 0 6 5 10 10 10 6 0 10 -4 10 -10z m3870 -245
c61 -32 47 -112 -23 -129 -94 -24 -143 88 -57 131 33 17 45 16 80 -2z m-2759
-48 c70 -34 125 -87 153 -146 16 -36 21 -65 21 -136 0 -81 -3 -96 -30 -144
-36 -65 -83 -105 -153 -131 -45 -17 -78 -20 -227 -20 l-175 0 0 306 0 306 178
-4 c168 -3 180 -5 233 -31z m981 -107 c51 -77 95 -139 98 -139 3 0 47 62 98
139 l92 140 65 0 65 0 0 -305 0 -305 -65 0 -65 0 0 197 0 196 -90 -131 c-50
-73 -94 -132 -99 -132 -5 0 -50 59 -100 132 l-91 132 0 -197 0 -197 -65 0 -65
0 0 305 0 305 64 0 64 0 94 -140z m-412 -44 c75 -36 84 -62 88 -258 l4 -168
-56 0 c-40 0 -57 4 -64 16 -8 14 -13 14 -48 -5 -26 -14 -57 -21 -97 -21 -103
0 -157 46 -157 136 0 101 76 150 219 142 79 -4 90 7 52 53 -17 21 -28 24 -83
23 -38 0 -78 -8 -98 -17 -18 -10 -34 -16 -35 -15 -1 2 -9 22 -18 46 l-16 44
46 20 c91 40 185 42 263 4z m1280 13 c97 -24 163 -114 163 -223 0 -93 -42
-160 -126 -203 -43 -22 -65 -26 -127 -26 -87 0 -131 15 -188 68 -73 65 -91
179 -44 272 55 107 175 149 322 112z m354 -62 c90 -222 104 -252 111 -232 4
11 35 84 67 163 l60 142 69 0 c38 0 69 -1 69 -3 0 -1 -45 -101 -100 -222 l-99
-220 -73 -5 c-40 -3 -74 -6 -75 -5 -4 1 -193 434 -193 444 0 7 25 11 68 11
l67 0 29 -73z m576 -152 l0 -225 -65 0 -65 0 0 225 0 225 65 0 65 0 0 -225z
m465 199 c52 -27 92 -85 107 -155 19 -92 24 -89 -172 -89 -190 0 -198 -3 -135
-59 31 -27 43 -31 92 -31 37 0 72 7 100 21 24 12 45 20 47 18 1 -2 13 -19 26
-38 l24 -34 -29 -23 c-60 -48 -208 -64 -286 -30 -47 20 -96 61 -114 96 -64
123 -21 265 97 324 46 24 63 27 128 24 51 -2 88 -10 115 -24z m513 11 c28 -9
54 -20 57 -25 4 -6 -1 -30 -10 -54 l-17 -44 -29 15 c-41 20 -140 28 -167 14
-46 -24 -8 -71 58 -71 40 0 126 -34 152 -60 23 -23 28 -37 28 -75 0 -88 -48
-134 -160 -150 -66 -10 -199 18 -237 50 -4 2 28 95 32 95 2 0 24 -9 49 -20 93
-40 196 -35 196 9 0 26 -20 36 -93 50 -131 24 -186 75 -171 158 8 45 60 98
107 112 50 14 148 12 205 -4z m-4865 -719 c102 -67 198 -113 323 -155 49 -17
81 -30 72 -31 -28 0 -188 60 -278 105 -104 52 -226 142 -300 221 -49 52 -47
51 20 -12 41 -39 114 -97 163 -128z m444 -192 c-3 -3 -12 -4 -19 -1 -8 3 -5 6
6 6 11 1 17 -2 13 -5z m40 -10 c-3 -3 -12 -4 -19 -1 -8 3 -5 6 6 6 11 1 17 -2
13 -5z"/>
<path d="M7102 6235 c0 -16 2 -22 5 -12 2 9 2 23 0 30 -3 6 -5 -1 -5 -18z"/>
<path d="M6985 6230 c3 -5 8 -10 11 -10 2 0 4 5 4 10 0 6 -5 10 -11 10 -5 0
-7 -4 -4 -10z"/>
<path d="M7104 6050 c0 -74 1 -105 3 -67 2 37 2 97 0 135 -2 37 -3 6 -3 -68z"/>
<path d="M7073 5855 c0 -22 2 -30 4 -17 2 12 2 30 0 40 -3 9 -5 -1 -4 -23z"/>
<path d="M5119 5363 c-20 -5 -166 -82 -157 -83 3 0 44 18 89 40 102 49 99 50
249 -38 l25 -14 -25 21 c-34 28 -135 81 -151 80 -8 -1 -21 -3 -30 -6z"/>
<path d="M5337 5259 c7 -7 15 -10 18 -7 3 3 -2 9 -12 12 -14 6 -15 5 -6 -5z"/>
<path d="M3120 3061 l0 -191 78 0 c122 1 178 29 213 105 38 83 14 187 -57 241
-34 27 -45 29 -136 32 l-98 4 0 -191z"/>
<path d="M3790 2937 c-41 -14 -51 -48 -23 -79 15 -16 27 -19 66 -15 55 5 87
29 87 67 0 23 -5 29 -31 34 -42 8 -58 7 -99 -7z"/>
<path d="M5100 3097 c-70 -24 -101 -117 -60 -184 49 -81 174 -83 215 -3 37 71
9 157 -61 186 -39 17 -48 17 -94 1z"/>
<path d="M6453 3095 c-17 -7 -39 -27 -48 -44 l-16 -31 116 0 c63 0 115 2 115
5 0 2 -5 16 -12 30 -23 50 -91 68 -155 40z"/>
<path d="M5928 8953 c6 -2 18 -2 25 0 6 3 1 5 -13 5 -14 0 -19 -2 -12 -5z"/>
<path d="M7183 8953 c9 -2 23 -2 30 0 6 3 -1 5 -18 5 -16 0 -22 -2 -12 -5z"/>
<path d="M5688 8803 c7 -3 16 -2 19 1 4 3 -2 6 -13 5 -11 0 -14 -3 -6 -6z"/>
<path d="M8030 8676 c0 -2 8 -10 18 -17 15 -13 16 -12 3 4 -13 16 -21 21 -21
13z"/>
<path d="M5400 8620 c0 -11 2 -20 4 -20 2 0 6 9 9 20 3 11 1 20 -4 20 -5 0 -9
-9 -9 -20z"/>
<path d="M8130 8585 c30 -30 57 -55 59 -55 3 0 -19 25 -49 55 -30 30 -57 55
-59 55 -3 0 19 -25 49 -55z"/>
<path d="M8210 8495 c13 -14 26 -25 28 -25 3 0 -5 11 -18 25 -13 14 -26 25
-28 25 -3 0 5 -11 18 -25z"/>
<path d="M5247 8473 c-4 -3 -7 -11 -7 -17 0 -6 5 -5 12 2 6 6 9 14 7 17 -3 3
-9 2 -12 -2z"/>
<path d="M8240 8456 c0 -2 8 -10 18 -17 15 -13 16 -12 3 4 -13 16 -21 21 -21
13z"/>
<path d="M8300 8370 c6 -11 13 -20 16 -20 2 0 0 9 -6 20 -6 11 -13 20 -16 20
-2 0 0 -9 6 -20z"/>
<path d="M8357 8265 c15 -30 29 -53 31 -51 4 5 -46 106 -53 106 -3 0 7 -25 22
-55z"/>
<path d="M6608 8253 c7 -3 16 -2 19 1 4 3 -2 6 -13 5 -11 0 -14 -3 -6 -6z"/>
<path d="M5103 8226 c8 -16 14 -20 19 -13 4 6 2 17 -4 24 -18 22 -27 15 -15
-11z"/>
<path d="M6038 8243 c7 -3 16 -2 19 1 4 3 -2 6 -13 5 -11 0 -14 -3 -6 -6z"/>
<path d="M5998 8233 c7 -3 16 -2 19 1 4 3 -2 6 -13 5 -11 0 -14 -3 -6 -6z"/>
<path d="M6480 8230 c-20 -6 -21 -8 -5 -8 11 0 31 4 45 8 20 6 21 8 5 8 -11 0
-31 -4 -45 -8z"/>
<path d="M5948 8223 c6 -2 18 -2 25 0 6 3 1 5 -13 5 -14 0 -19 -2 -12 -5z"/>
<path d="M6666 8222 c5 -5 71 -58 148 -118 76 -60 151 -119 167 -132 16 -13
29 -20 29 -15 -1 14 -327 273 -344 273 -6 0 -6 -3 0 -8z"/>
<path d="M5908 8213 c7 -3 16 -2 19 1 4 3 -2 6 -13 5 -11 0 -14 -3 -6 -6z"/>
<path d="M6395 8210 c-25 -11 1 -11 35 0 20 6 21 8 5 8 -11 0 -29 -3 -40 -8z"/>
<path d="M6310 8190 c-20 -6 -21 -8 -5 -8 11 0 31 4 45 8 20 6 21 8 5 8 -11 0
-31 -4 -45 -8z"/>
<path d="M6220 8170 c-20 -6 -21 -8 -5 -8 11 0 31 4 45 8 20 6 21 8 5 8 -11 0
-31 -4 -45 -8z"/>
<path d="M6158 8153 c6 -2 18 -2 25 0 6 3 1 5 -13 5 -14 0 -19 -2 -12 -5z"/>
<path d="M6025 8125 c-54 -17 -33 -18 30 -1 28 8 41 14 30 14 -11 0 -38 -5
-60 -13z"/>
<path d="M5958 8123 c7 -3 16 -2 19 1 4 3 -2 6 -13 5 -11 0 -14 -3 -6 -6z"/>
<path d="M7103 7840 c0 -25 2 -35 4 -22 2 12 2 32 0 45 -2 12 -4 2 -4 -23z"/>
<path d="M6990 7500 c-8 -5 -10 -10 -5 -10 6 0 17 5 25 10 8 5 11 10 5 10 -5
0 -17 -5 -25 -10z"/>
<path d="M7020 7459 c0 -5 5 -7 10 -4 6 3 10 8 10 11 0 2 -4 4 -10 4 -5 0 -10
-5 -10 -11z"/>
<path d="M7132 7346 c7 -8 15 -12 17 -11 5 6 -10 25 -20 25 -5 0 -4 -6 3 -14z"/>
<path d="M7090 7330 c6 -11 18 -19 28 -19 16 1 16 2 0 6 -10 2 -18 11 -18 19
0 8 -5 14 -10 14 -7 0 -7 -6 0 -20z"/>
<path d="M7190 7339 c0 -5 5 -7 10 -4 6 3 10 8 10 11 0 2 -4 4 -10 4 -5 0 -10
-5 -10 -11z"/>
<path d="M7225 7320 c4 -6 11 -8 16 -5 14 9 11 15 -7 15 -8 0 -12 -5 -9 -10z"/>
<path d="M7063 7013 c9 -2 23 -2 30 0 6 3 -1 5 -18 5 -16 0 -22 -2 -12 -5z"/>
<path d="M7128 6620 c-12 -83 -10 -166 2 -154 7 7 10 51 8 110 -3 92 -4 95
-10 44z"/>
<path d="M7223 5240 c0 -25 2 -35 4 -22 2 12 2 32 0 45 -2 12 -4 2 -4 -23z"/>
<path d="M7283 5160 c0 -25 2 -35 4 -22 2 12 2 32 0 45 -2 12 -4 2 -4 -23z"/>
<path d="M7221 5134 c0 -11 3 -14 6 -6 3 7 2 16 -1 19 -3 4 -6 -2 -5 -13z"/>
<path d="M7283 5025 c0 -38 2 -53 4 -32 2 20 2 52 0 70 -2 17 -4 1 -4 -38z"/>
<path d="M7221 5054 c0 -11 3 -14 6 -6 3 7 2 16 -1 19 -3 4 -6 -2 -5 -13z"/>
<path d="M7282 4910 c0 -14 2 -19 5 -12 2 6 2 18 0 25 -3 6 -5 1 -5 -13z"/>
<path d="M7283 4840 c0 -25 2 -35 4 -22 2 12 2 32 0 45 -2 12 -4 2 -4 -23z"/>
</g>
</svg>
